<?xml version="1.0" encoding="utf-8"?>
<!-- Generator: Adobe Illustrator 21.0.0, SVG Export Plug-In . SVG Version: 6.00 Build 0)  -->
<svg version="1.1" id="Layer_1" xmlns="http://www.w3.org/2000/svg" xmlns:xlink="http://www.w3.org/1999/xlink" width="30" height="30" x="0px" y="0px"
	 viewBox="0 0 59.9 59.9" style="enable-background:new 0 0 59.9 59.9;" xml:space="preserve">
<style type="text/css">
	.st0{fill:#41839e;}
</style>
<path class="st0" d="M39.2,22.5L39.2,22.5c0.5,0,1,0,1.5,0c0.6,0,1.2-0.6,1.2-1.2c0-1,0-1.9,0-2.9c0-0.7-0.5-1.2-1.2-1.2
	c-1,0-1.9,0-2.9,0c-0.7,0-1.2,0.6-1.2,1.2c0,1,0,1.9,0,2.9c0,0.1,0,0.3,0.1,0.4c0.2,0.5,0.6,0.8,1.2,0.8
	C38.3,22.5,38.7,22.5,39.2,22.5z M29.9,23.8c-3.4,0-6.1,2.7-6.2,6.1c0,3.5,2.7,6.2,6,6.3c3.4,0.1,6.2-2.7,6.3-6
	C36.2,26.6,33.4,23.8,29.9,23.8z M18,27.1L18,27.1c0,4.6,0,9.1,0,13.6c0,0.6,0.6,1.2,1.2,1.2c7.1,0,14.3,0,21.4,0
	c0.7,0,1.2-0.6,1.2-1.2c0-4.5,0-9,0-13.5v-0.1h-2.9c0.4,1.3,0.5,2.6,0.4,4c-0.2,1.4-0.6,2.6-1.3,3.8s-1.6,2.1-2.8,2.9
	c-2.9,2-6.8,2.2-9.9,0.4c-1.6-0.9-2.8-2.1-3.7-3.7c-1.3-2.4-1.5-4.9-0.7-7.4C19.9,27.1,19,27.1,18,27.1z M42.1,45.1
	c0.2,0,0.3,0,0.5-0.1c1.2-0.3,2.3-1.3,2.5-2.6c0-0.1,0-0.3,0.1-0.4V17.8c0-0.1,0-0.3-0.1-0.4c-0.3-1.4-1.4-2.4-2.8-2.6
	c-0.1,0-0.1,0-0.2,0H17.7c-0.1,0-0.3,0-0.4,0.1c-1.3,0.3-2.3,1.4-2.5,2.8c0,0.1,0,0.1,0,0.2v24.4c0,0.2,0,0.3,0.1,0.5
	c0.3,1.3,1.4,2.3,2.8,2.5c0.1,0,0.1,0,0.2,0h24.2L42.1,45.1z M29.9,59.9C13.4,59.9,0,46.5,0,29.9S13.4,0,29.9,0s29.9,13.4,29.9,29.9
	S46.5,59.9,29.9,59.9z"/>
</svg>
